# xmcd
#
# Track frame offsets:
#	150
#	24702
#	43442
#	58977
#	70905
#	92042
#	110880
#	138402
#	167380
#	190327
#	211065
#	221182
#	242817
#	261160
#	277135
#
# Disc length: 4297 seconds
#
# Revision: 0
# Processed by: cddbd v1.4b42PL1 Copyright (c) Steve Scherf et al.
# Submitted via: EasyCDDAExtractor 4.5.0.2
#
DISCID=f510c70f
DTITLE=Pure Prairie League - Concert Classics Vol. 1
DYEAR=1999
DGENRE=Country
TTITLE0=Place In The Middle
TTITLE1=I'll Change Your Flat Tire Merle
TTITLE2=Goodbye So Long
TTITLE3=Louise (What I Did)
TTITLE4=White Line
TTITLE5=Restless Woman
TTITLE6=Misery Train
TTITLE7=Drifting Too Far From The Shore
TTITLE8=Amie
TTITLE9=Pickin' To Beat The Devil
TTITLE10=That'll Be The Day
TTITLE11=Livin' It Alone
TTITLE12=Two Lane Highway
TTITLE13=I've Just Seen A Face
TTITLE14=I Can't Hold Back
EXTD=
EXTT0=
EXTT1=
EXTT2=
EXTT3=
EXTT4=
EXTT5=
EXTT6=
EXTT7=
EXTT8=
EXTT9=
EXTT10=
EXTT11=
EXTT12=
EXTT13=
EXTT14=
PLAYORDER=
